<svg width="512" height="512" viewBox="0 0 512 512" fill="none" xmlns="http://www.w3.org/2000/svg">
<rect width="512" height="512" fill="#1A1A2E"/>
<path opacity="0.95" d="M390.64 57H121.36C111.22 57 103 65.2242 103 75.3692V436.631C103 446.776 111.22 455 121.36 455H390.64C400.78 455 409 446.776 409 436.631V75.3692C409 65.2242 400.78 57 390.64 57Z" fill="white"/>
<path opacity="0.2" d="M358.361 137H153.639C149.42 137 146 140.358 146 144.5C146 148.642 149.42 152 153.639 152H358.361C362.58 152 366 148.642 366 144.5C366 140.358 362.58 137 358.361 137Z" fill="#1A1A2E"/>
<path opacity="0.2" d="M358.361 179H153.639C149.42 179 146 182.582 146 187C146 191.418 149.42 195 153.639 195H358.361C362.58 195 366 191.418 366 187C366 182.582 362.58 179 358.361 179Z" fill="#1A1A2E"/>
<path opacity="0.2" d="M291.35 222H153.65C149.425 222 146 225.582 146 230C146 234.418 149.425 238 153.65 238H291.35C295.575 238 299 234.418 299 230C299 225.582 295.575 222 291.35 222Z" fill="#1A1A2E"/>
<path opacity="0.8" d="M358.361 277H153.639C149.42 277 146 280.582 146 285C146 289.418 149.42 293 153.639 293H358.361C362.58 293 366 289.418 366 285C366 280.582 362.58 277 358.361 277Z" fill="#4F8EF7"/>
<path opacity="0.5" d="M260.375 314H153.625C149.414 314 146 317.358 146 321.5C146 325.642 149.414 329 153.625 329H260.375C264.586 329 268 325.642 268 321.5C268 317.358 264.586 314 260.375 314Z" fill="#4F8EF7"/>
<path d="M252.288 245.85L230.65 267.488C228.26 269.878 228.26 273.753 230.65 276.143L330.183 375.675C332.573 378.065 336.447 378.065 338.837 375.675L360.475 354.037C362.865 351.647 362.865 347.773 360.475 345.383L260.943 245.85C258.553 243.46 254.678 243.46 252.288 245.85Z" fill="#F4C542"/>
<path d="M334.51 380.002L364.802 349.71L379.949 395.149L334.51 380.002Z" fill="#E8A020"/>
<path d="M240.387 231.786L216.586 255.587C214.793 257.379 214.793 260.286 216.586 262.078L227.405 272.897C229.197 274.689 232.103 274.689 233.896 272.897L257.697 249.096C259.489 247.303 259.489 244.397 257.697 242.605L246.878 231.786C245.086 229.993 242.18 229.993 240.387 231.786Z" fill="#AAAAAA"/>
<path opacity="0.5" d="M256.615 241.523L226.323 271.815L234.978 280.47L265.27 250.178L256.615 241.523Z" fill="#F4C542"/>
</svg>
